<svg xmlns="http://www.w3.org/2000/svg" viewBox="0 0 566.03 478.31"><defs><style>.cls-1{fill:#e7e28b;}.cls-2{font-size:71.56px;}.cls-2,.cls-7{fill:#fff;font-family:KnightVision, Knight Vision;}.cls-3{letter-spacing:-0.02em;}.cls-4{letter-spacing:-0.07em;}.cls-5{letter-spacing:-0.07em;}.cls-6{letter-spacing:-0.02em;}.cls-7{font-size:44.82px;}.cls-8{letter-spacing:-0.05em;}.cls-9{letter-spacing:-0.02em;}</style></defs><g id="Camada_2" data-name="Camada 2"><polygon class="cls-1" points="295.55 234.21 292.73 237.31 293.86 240.31 299.21 237.97 295.55 234.21"/><path class="cls-1" d="M376.14,221.25c-3,1.5-13,1.69-13,1.69l6.48,2.63S374.55,223.13,376.14,221.25Z"/><polygon class="cls-1" points="368.16 234.77 371.45 232.24 363.18 232.24 368.16 234.77"/><path class="cls-1" d="M134.56,135.36c1.94,2.32,3.85,6,4.1,7.55s-.5,4.1-2,4.79c.47.69.44,1.5-.28,2.63,1.88,2.85,5.79,3.16,6.45,5.86s-4.22,4-7,3.41c1.35,1.69,1.94,1.56,5.07,3.57s7.33,1.06,7.75,2c2,4.51-5,8.88-5,8.88s.57-.19,4.51,3.19,10.61,5.55,16.25,5.59c1.41,5.83-6.72,9.16-6.72,9.16a47.13,47.13,0,0,0,14,7.42c-4.68,2.38-12.11,1.27-15.59-.14a51,51,0,0,1-17.92-12.69l.59,1.94c2.74,6.24,8.47,12.84,13.34,17.37,5.45,5.07,10.71,3.63,10.71,3.63s.43,1.91-2.29,3.42c1.07.5,8.33,1.63,8.33,2.24s-2.13,1.33-5.57,1.83a37.46,37.46,0,0,1-12.31-.5A145.34,145.34,0,0,0,161,231.86a44.31,44.31,0,0,0,4.14,2.88s6.73-2.85,8.61-4.51c-4.2.41-6.2-2.35-9.18-3.28s-2.53-3-1.53-3.64,2.88-.4,3.76-.56,7.73-3.1,8.33-5.51c-3.39-1.16-.63-4.29-.63-4.29s-5-.16-7.17-1.78-.56-3,.47-3.14,3.22.16,4.35-.75,5.23-.65,7.2-2.13,5-3.43,5.27-3.58a7.29,7.29,0,0,1-3.92.77c-2.73-.07-3.41-1.48-3.2-2.07s3.29-.88,3.29-.88-.09-1-3-1.88-3.45-2-2.79-2.75,4.32-.66,6.79-.88,5.73-3.16,5.73-3.16a9.92,9.92,0,0,1-3.44.53c-1.88-.06-3.35-1.44-3-2.38s2.29-.69,3.45-1,2.37-2.25,2.37-2.25a16.44,16.44,0,0,1-3.06,0c-1.51-.16-1.57-1.63-3.45-1.54a1.55,1.55,0,0,1-1.66-2c.16-.25.41.25,1.38.31s.06-.91,3.16-1.16,8-3.16,7.36-3.53-2.69-.82-2.75-1.54,3-1.41,3.25-2.41,1.69-1.75,1.66-3.1a8.29,8.29,0,0,1,.85-4.45c.87-1.65.37-3.47.25-5.51s1.16-8.61,1.75-8.64.75,13.53,1.19,14.66c1.78,1.84.56,4.38,2.91,8.51s5.73,4.67,5.7,5.57-4,1.51-6.57.58c3.52,6.3,10.52,5.59,11.13,6.95s-2.59,4.65-7.75,3.67c4.18,4.13,7.56,3,8.64,4.65s-2.68,4.6-6,3.61c1.41,3,3.9,4.32,6.44,6.58s7,2.21,7.7,3.94-3,3.95-7.14,3.85c2,3,5.73,3.43,7.47,3.9s4.6,2.59,5.82,2.07,2.73-3.19,4.2-5.46c0,0,2.09-2.29-2.49-2.81s-5.63-3.86-4.27-5.94,6.35-.94,8.74-4.68c-16.14-.11-15.83-7.09-14.68-8.54s4.69-.42,9.89-2.4,11.77-2.92,18.47-14.44c-4.89,3.47-23.5,6.7-29.26,4.2,7.08-.8,24.57-9.27,25.23-11.11a12.14,12.14,0,0,1,1.84-3.26,20.85,20.85,0,0,1-5.38,1.94,16.12,16.12,0,0,1-8.36-.48c-1.91-.52-3.37-2.22-1.25-3.4s8.43-4,12.42-6c-2.56-.18-3.15-1.5-3.09-2.4s.39-1.77,2.3-2.6,2.88-.63,3.95-2.71,3-3,4-5.14,3.5-8.29,3.5-8.29a15.9,15.9,0,0,1-7,5c2.64-7.42,10.48-16.73,10.41-19.85s1-4.58,2.22-7.57,0-4.79,2-4.79.48,3.89,1.87,5.49-.07,3,.63,6.17,2.71,5.07,4.58,7.57a76,76,0,0,0,5.55,6.18s-3,1.94-8.74-1.46c6.66,7.08,11,4.65,11.38,7.36s-6.49,5-6.49,5,.42,1.77,6.87,2.29,9.38.93,14,1.66c-2.81,3.86-9.58,4-9.58,4s6.25,3.33,17.6,2.08c-5.52,5-11.25,6.36-21.25,4,2.81,4.89-5.41,5.1-5.41,5.1s3.33,1.88,12.29,3.13,9.37-3.65,9.37,2.08-10.94,9.16-19.79,8.75c10.83,9.72,31.14,12.75,31.14,12.75s-7.76,7.24-13.59,7.09c1.09,3.54,6.46,6.45,6.46,6.45s-5.78,3.65-17.55-1.3c5.83,2.86,11.51,3.85,14,8.23a45.84,45.84,0,0,1,8,.47s-4.53,2.86-8.28,2.86-8.85,2.4-18-.78c1.87,3.07,9.68,4.58,14.37,6.46a33.24,33.24,0,0,0,13.07,2.08c3.85,0,13-4.64,13.22-4.17s-.62,1.62-2.5,4.79c5.78-.62,9.12-2.55,15.38-8.14-2.46.14-4.65-2-4.65-2a17.52,17.52,0,0,1-7.84,0c-4.93-.9-11.18-5.76-12.33-9.48,1.6.94,4.79.77,5.66,1.36s1.22,0,2.12.1,1.63,1.67,4.2.83,5.31-1.45,7.08-2.22,4-1.91,6.46-3.26a10.79,10.79,0,0,0,3.55-3s-8.46.81-9.47,0-4.64-1.82-4.64-1.82,5-.16,7-1.38c-2.91-.78-6.35-4.71-6.35-4.71s2.55.65,4,1,1-.75,2.87.13,5.8-.36,9.55-3.46c-1.3.21-2.32-.63-4-1.38s-2.16-2.55-1.35-3.41,1.82-.08,3.83-.44,4-2,4-3-.63-1.2-.76-2.19,1.09-2.08.91-2.86a6.51,6.51,0,0,1,.89-3.83c.78-1.43,2.52-5.65,2.6-7.63s.6-3.93,2-3.75,1,5.75.91,7.13.81,2,.73,3.6a11,11,0,0,0,.39,3.33c.24,1.3-.54,1.25-.18,2.5s-1.25,2.39-1.27,2.81.05.52,1.22,1.35,0,2.92.23,2.89a1.55,1.55,0,0,1,1.07,1.62A1.66,1.66,0,0,0,347,186.6c1.19.1,2.42,1.4,3.35,1.4a2.5,2.5,0,0,1,2.5,1c.89,1.09.42,2.92-2,3.54a47.2,47.2,0,0,1-5.52,1,4.09,4.09,0,0,1,2.19,2c.68,1.51,1.62,4,7.76,10.21s10.05,3.38,10.57,5.2-2.81,3.91-8,4.33a4.57,4.57,0,0,1-1.45,2.86l1.61.68a35.17,35.17,0,0,0,17.32-12.34,49.65,49.65,0,0,1-7,.9c-2.47,0-3.61-.77-3.68-2s1.15-2.12,2.6-2.19,2.68-.34,3.54-2.7c-1.8-.66-1.7-3.61-1.7-3.61s-1.21,1-4.44.83A18.78,18.78,0,0,1,358,195.9c-1.07-.42-2.36.55-2.39-1.42s.83-.39,3.33-3,7.53-3.27,9.65-3.48,3.68-2.53,6.46-3.78c-3.54.38-5-1.28-9.44-1.49s-5.31-2.78-5.31-2.78.45.66,2.84.42a4.71,4.71,0,0,1-1-1.77,11.46,11.46,0,0,0,4.72,1.7,6.55,6.55,0,0,1,4.58-5.21c3.13-.9,1.18-1.67,5.14-2.43s7.29-2.57,7.29-4.58-6.25,2.71-5.83-2.15,7.43-4,8.61-6.32,6.38-10.42,6.52-13.75,1.74-5.62,1.81-6.66-.7-5.21,1.6-5.42,4.51,10.07,4.51,12.64,1.66,4.09,2.71,7.84a10.77,10.77,0,0,0,3.95,6.25c1.46,1.25,2.16,4.51-.34,5.07a3.85,3.85,0,0,1-3.89-1.49,2.77,2.77,0,0,1-2.12,2.39,7.92,7.92,0,0,1,4.51,5.31c.35,2,3,3,5.11,2.81s3.16-.38,3.43.21-.45,3.79-3.54,4.72a11.89,11.89,0,0,1-6.35-.13s.59,2.25,2.39,2.42,3.37-1.18,3.61.56-4.37,4.2-8.85,3.09c2,3.82,8.89,7.52,11.2,9.46a144.93,144.93,0,1,0-280.13-65.45C133.29,132.1,133.83,134.49,134.56,135.36Z"/><polygon class="cls-1" points="363.18 243.98 365.44 240.6 359.8 240.6 363.18 243.98"/><path class="cls-1" d="M277.34,304.45s-71.26-85.34-250.06-18.77c0,0,142.07-50.64,250.06,33Z"/><path class="cls-1" d="M277.34,325.12S175.78,241.3,18.56,297.23L5.39,314.54S128.38,246.72,277.34,325.12Z"/><path class="cls-1" d="M277.34,333.47S143.25,256.66,5.39,322.09L0,329.49S146,272,277.34,333.47Z"/><path class="cls-1" d="M277.34,304.45s71.25-85.34,250.06-18.77c0,0-142.08-50.64-250.06,33Z"/><path class="cls-1" d="M277.34,325.12s101.55-83.82,258.77-27.89l13.17,17.31S426.29,246.72,277.34,325.12Z"/><path class="cls-1" d="M277.34,333.47s134.08-76.81,271.94-11.38l5.39,7.4S408.7,272,277.34,333.47Z"/><text class="cls-2" transform="translate(0 413.87)"><tspan class="cls-3">d</tspan><tspan x="54.16" y="0">ark </tspan><tspan class="cls-4" x="221.87" y="0">f</tspan><tspan x="262.05" y="0">an</tspan><tspan class="cls-5" x="366.87" y="0">t</tspan><tspan class="cls-6" x="417.54" y="0">a</tspan><tspan x="468.2" y="0">sy</tspan></text><text class="cls-7" transform="translate(199.31 469.56)">b<tspan class="cls-8" x="30.64" y="0">o</tspan><tspan class="cls-9" x="67.84" y="0">o</tspan><tspan x="106.14" y="0">ks</tspan></text></g></svg>